<svg width="16" height="16" viewBox="0 0 16 16" fill="none" xmlns="http://www.w3.org/2000/svg">
    <path d="M8 16a7.948 7.948 0 0 1-5.657-2.343A7.948 7.948 0 0 1 0 8c0-2.137.832-4.146 2.343-5.657A7.948 7.948 0 0 1 8 0c2.137 0 4.146.832 5.657 2.343A7.948 7.948 0 0 1 16 8a7.948 7.948 0 0 1-2.343 5.657A7.948 7.948 0 0 1 8 16zM8 1.25A6.758 6.758 0 0 0 1.25 8 6.758 6.758 0 0 0 8 14.75 6.758 6.758 0 0 0 14.75 8 6.758 6.758 0 0 0 8 1.25zm3.293 10.043-.884-.884a3.41 3.41 0 0 1-4.818 0 3.41 3.41 0 0 1 0-4.817 3.41 3.41 0 0 1 4.818 0l.883-.884a4.662 4.662 0 0 0-6.584 0 4.662 4.662 0 0 0 0 6.585A4.642 4.642 0 0 0 8 12.654a4.642 4.642 0 0 0 3.293-1.361z" fill="#fff"/>
</svg>
